<?xml version="1.0" encoding="UTF-8" standalone="no"?>
<svg xmlns="http://www.w3.org/2000/svg" xmlns:xlink="http://www.w3.org/1999/xlink" version="1.1" viewBox="0 0 21 13" fill="none" fill-rule="evenodd" stroke-miterlimit="5">
  <title></title>
  <desc>"Generator:ParallelGraphics Cortona2D","ProfileId:WebCGM""ProfileEd:2.1""ColourClass:colour""Source:Cortona2D Editor Pro 4.1.0.78""Date:20190417"</desc>
  <rect width="21" height="13" fill="#fff"/>
  <defs/>
  <g transform="matrix(4.81481,0,0,4.81481,0.148149,13)">
    <path fill="#000" d="M0.27997,-2.6799 C0.35962,-2.6799 0.43926,-2.6533 0.49235,-2.6002 L2.1382,-0.66231 3.7841,-2.5737 C3.8904,-2.6799 4.0496,-2.7064 4.1559,-2.6002 4.262,-2.4941 4.2886,-2.3347 4.1824,-2.2286 L2.3241,-0.10482 C2.271,-0.025181 2.1913,0.0013658 2.1117,0.0013658 2.0321,0.0013658 1.979,-0.025181 1.8993,-0.10482 L0.067599,-2.2286 C-0.038589,-2.3347 -0.012041,-2.4941 0.094143,-2.6002 0.14724,-2.6533 0.22689,-2.6799 0.27997,-2.6799 Z"/>
  </g>
</svg>
