<?xml version="1.0" encoding="UTF-8"?>
<svg xmlns="http://www.w3.org/2000/svg" xmlns:xlink="http://www.w3.org/1999/xlink" viewBox="0 0 40 40" version="1.1">
<g id="surface1">
<path style=" fill:#FFFFFF;" d="M 6.5 37.5 L 6.5 2.5 L 24.792969 2.5 L 33.5 11.207031 L 33.5 37.5 Z "/>
<path style=" fill:#4788C7;" d="M 24.585938 3 L 33 11.414063 L 33 37 L 7 37 L 7 3 L 24.585938 3 M 25 2 L 6 2 L 6 38 L 34 38 L 34 11 Z "/>
<path style=" fill:#DFF0FE;" d="M 24.5 11.5 L 24.5 2.5 L 24.792969 2.5 L 33.5 11.207031 L 33.5 11.5 Z "/>
<path style=" fill:#4788C7;" d="M 25 3.414063 L 32.585938 11 L 25 11 L 25 3.414063 M 25 2 L 24 2 L 24 12 L 34 12 L 34 11 Z "/>
</g>
</svg>
